<svg width="43" height="43" viewBox="0 0 43 43" fill="none" xmlns="http://www.w3.org/2000/svg">
<path d="M31.6276 20.326L35.378 16.5756L26.42 7.6176L22.6696 11.368L12.78 1.5023C10.9168 -0.360955 7.883 -0.360955 6.01975 1.5023L1.48105 6.041C-0.382206 7.90425 -0.382206 10.938 1.48105 12.8013L11.3467 22.667L0 34.0376V42.9956H8.95796L20.3286 31.6249L30.1943 41.4906C32.4636 43.76 35.5213 42.9239 36.9546 41.4906L41.4933 36.9519C43.3565 35.0887 43.3565 32.0549 41.4933 30.1917L31.6276 20.326ZM14.7627 19.2749L4.87313 9.40919L9.38794 4.87049L12.4217 7.90425L9.60293 10.7469L12.9711 14.1151L15.8138 11.2724L19.2775 14.7362L14.7627 19.2749ZM33.5864 38.1224L23.7207 28.2567L28.2594 23.718L31.7231 27.1818L28.8805 30.0244L32.2486 33.3926L35.0913 30.55L38.1251 33.5837L33.5864 38.1224Z" fill="#39C64E"/>
<path d="M42.306 9.64806C43.2376 8.71643 43.2376 7.21149 42.306 6.27987L36.7162 0.6901C35.5935 -0.432631 34.0408 -0.00264882 33.348 0.6901L28.9766 5.06158L37.9345 14.0195L42.306 9.64806Z" fill="#39C64E"/>
</svg>
