<svg width="167" height="44" viewBox="0 0 167 44" fill="none" xmlns="http://www.w3.org/2000/svg">
<path d="M25.0875 25.2822H15.7422L21.644 17.2001H30.9893L25.0875 25.2822Z" fill="url(#paint0_linear_2483_264)"/>
<path d="M36.5738 28.6554H30.7422V38.8358H36.5738V28.6554Z" fill="url(#paint1_linear_2483_264)"/>
<path d="M13.2209 3.70337L5.49219 12.4874V38.8358H25.108V32.2108H11.3238V10.3284H30.7559V17.2001H36.5876V3.70337H13.2209Z" fill="url(#paint2_linear_2483_264)"/>
<path d="M47.0078 38.7409H57.2048V36.2442H49.4661V30.8637H56.116V28.3708H49.4661V23.0131H57.2048V20.5201H47.0078V38.7409Z" fill="white"/>
<path d="M103.673 30.1048H102.507C104.161 29.5357 105.032 28.0521 105.032 25.7792C105.032 21.1424 101.833 20.5201 98.7031 20.5201H93.2656V38.7409H95.7239V31.7326H102.771V38.7409H105.23V31.7971C105.23 30.6588 104.718 30.1048 103.673 30.1048ZM98.6998 29.2359H95.7205V23.0131H98.6998C101.392 23.0131 102.571 23.309 102.571 26.1245C102.574 28.9286 101.332 29.2359 98.6998 29.2359Z" fill="white"/>
<path d="M105.82 20.5201V23.0131H111.184V38.7409H113.619V23.0131H118.94V20.5201H105.82Z" fill="white"/>
<path d="M130.58 23.0131V20.5201H120.383V38.7409H130.58V36.2442H122.841V30.8637H129.491V28.3708H122.841V23.0131H130.58Z" fill="white"/>
<path d="M143.716 31.5543C143.386 34.7379 141.669 36.4947 138.883 36.4947C135.707 36.4947 133.813 33.9259 133.813 29.6192C133.813 25.3277 135.71 22.7665 138.883 22.7665C141.669 22.7665 143.386 24.5119 143.716 27.6803L143.75 28.018H146.215L146.168 27.593C145.68 23.0093 142.958 20.2736 138.88 20.2736C134.378 20.2736 131.352 24.03 131.352 29.6192C131.352 35.2235 134.378 38.9914 138.88 38.9914C142.958 38.9914 145.68 36.2442 146.168 31.6454L146.211 31.2204H143.746L143.716 31.5543Z" fill="white"/>
<path d="M158.878 20.5201V28.4922H150.482V20.5201H148.023V38.7409H150.482V30.9889H158.878V38.7409H161.317V20.5201H158.878Z" fill="white"/>
<path d="M86.7839 20.5201H82.6323L77.4453 38.7409H79.9403L81.8574 31.9034H87.5388L89.4793 38.7409H91.9509L86.7839 20.5201ZM82.5722 29.4104L84.5462 22.3642C84.5929 22.2011 84.7933 22.2011 84.8401 22.3604L84.9369 22.6905L86.8374 29.4104H82.5722Z" fill="white"/>
<path d="M71.9883 20.5201L67.6062 37.4091L63.2475 20.5201H59.0625V38.7409H61.5207V27.7333C61.5207 26.9744 61.4239 26.2193 61.2302 25.4908L60.3117 22.0076C60.2783 21.8861 60.2916 21.7571 60.3451 21.6433C60.3985 21.5295 60.4853 21.4498 60.5922 21.4118C60.6323 21.3967 60.6724 21.3929 60.7125 21.3929C60.7793 21.3929 60.8494 21.4118 60.9095 21.4498C61.0097 21.5105 61.0799 21.6091 61.1133 21.7344L61.5207 23.2711V23.2597L61.7612 24.1742L62.4793 26.891C62.486 26.9213 62.4927 26.9555 62.496 26.9858L65.5588 38.7371H69.657L72.7164 26.9972C72.7198 26.9631 72.7231 26.9251 72.7331 26.891L73.6817 23.2977L73.6917 23.2559L74.0958 21.7268C74.1292 21.6053 74.1994 21.5029 74.2996 21.4422C74.3597 21.4042 74.4298 21.3853 74.4966 21.3853C74.5367 21.3853 74.5768 21.3929 74.6169 21.4042C74.7238 21.4422 74.8139 21.5219 74.864 21.6357C74.9175 21.7495 74.9275 21.8747 74.8974 22L73.9823 25.4718C73.7886 26.2004 73.6917 26.9555 73.6917 27.7143V38.7333H76.1499V20.5201H71.9883Z" fill="white"/>
<path d="M56.9244 9.66056C57.736 9.7023 58.1401 10.1576 58.1401 11.0266C58.1401 11.4022 58.0433 11.702 57.8495 11.9258C57.6558 12.1497 57.3986 12.2635 57.078 12.2635H55.2109L55.5349 11.5729H57.0212C57.3619 11.5729 57.5289 11.3794 57.5289 10.9962C57.5289 10.5257 57.265 10.2904 56.7373 10.2904C56.4634 10.2904 56.2129 10.3663 55.9858 10.5143V9.87305L57.1749 8.37805H57.9264L56.9244 9.66056Z" fill="white"/>
<path d="M88.4524 6.40503V13.6144C88.4524 15.9859 87.0663 17.6327 85.1491 17.9211L84.5312 17.1963C85.3195 17.1963 86.8525 16.6386 86.8525 13.6144V7.3726L88.4524 6.40503Z" fill="white"/>
<path d="M96.2048 14.3619V14.8703C96.2048 14.9424 96.1614 15.0145 96.0779 15.0145H93.2656V4.63298L94.8855 3.66541V14.2177H96.0779C96.1614 14.2177 96.2048 14.2898 96.2048 14.3619Z" fill="white"/>
<path d="M148.027 14.3619V14.8704C148.027 14.9425 147.984 15.0146 147.9 15.0146H146.644C146.217 15.0146 145.836 14.7224 145.686 14.3126L145.088 15.0146H143.254C141.998 15.0146 140.889 14.4568 140.165 13.4892C139.951 14.4568 139.396 15.0146 138.097 15.0146H96.08C95.9932 15.0146 95.9531 14.9425 95.9531 14.8704V14.3619C95.9531 14.2898 95.9965 14.2177 96.08 14.2177H138.101C139.316 14.2177 139.336 13.6144 139.316 12.3281V10.8293V10.7079C139.316 8.09355 141.063 6.40125 143.258 6.40125C145.432 6.40125 147.179 8.09355 147.179 10.7079V14.2177H147.903C147.984 14.2177 148.027 14.2898 148.027 14.3619ZM145.642 14.2177C145.599 14.0963 145.579 13.9521 145.579 13.8079V10.7117C145.579 7.71032 144.046 7.20187 143.258 7.20187C142.489 7.20187 140.936 7.71032 140.936 10.7117C140.936 13.7131 142.493 14.2215 143.258 14.2215H145.642V14.2177Z" fill="white"/>
<path d="M157.57 14.2177H161.32V15.0146H147.9C147.817 15.0146 147.773 14.9425 147.773 14.8704V14.3619C147.773 14.2898 147.817 14.2177 147.9 14.2177H155.185C154.246 13.4664 153.628 12.256 153.628 10.7079C153.628 8.09355 155.375 6.40125 157.57 6.40125C159.337 6.40125 160.809 7.53957 161.32 9.3533L159.871 10.226C159.721 7.68376 158.294 7.20187 157.57 7.20187C156.781 7.20187 155.248 7.71032 155.248 10.7117C155.248 13.7131 156.781 14.2177 157.57 14.2177Z" fill="white"/>
<path d="M80.9413 4.20046L79.9193 3.06213L78.8972 4.20046L79.9193 5.36155L80.9413 4.20046ZM83.1992 4.20046L82.1972 3.06213L81.1751 4.20046L82.1972 5.36155L83.1992 4.20046ZM80.9647 13.8079C80.9647 13.9521 80.9847 14.1001 81.0282 14.2177H78.4062V14.8703C78.4062 14.9424 78.4497 15.0145 78.5332 15.0145H80.4704L81.0682 14.3126C81.2386 14.7224 81.6227 15.0145 82.0268 15.0145H82.5813V6.25323L80.9613 7.22081V13.8079H80.9647Z" fill="white"/>
<path d="M48.6277 9.34184L47.0078 8.37427V15.0183H47.5623C47.9664 15.0183 48.3505 14.7261 48.5208 14.3163L49.1187 15.0183H59.3591C59.446 15.0183 59.4861 14.9462 59.4861 14.8741V14.2215H48.5643C48.6077 14.1 48.6277 13.9558 48.6277 13.8117V9.34184Z" fill="white"/>
<path d="M66.9142 14.2177V3.66541L65.3177 4.63298V13.8041C65.3177 13.9483 65.3377 14.0962 65.3811 14.2139H47.0078V15.0107H64.8267L65.4246 14.3087C65.5949 14.7185 65.9556 15.0107 66.3832 15.0107H78.5374C78.6009 15.0107 78.6643 14.9386 78.6643 14.8665V14.2139H66.9142V14.2177Z" fill="white"/>
<defs>
<linearGradient id="paint0_linear_2483_264" x1="29.5689" y1="21.2428" x2="15.7481" y2="21.2428" gradientUnits="userSpaceOnUse">
<stop stop-color="#39C64E"/>
<stop offset="1" stop-color="#029358"/>
</linearGradient>
<linearGradient id="paint1_linear_2483_264" x1="33.6591" y1="28.5576" x2="33.6591" y2="43.299" gradientUnits="userSpaceOnUse">
<stop stop-color="#39C64E"/>
<stop offset="1" stop-color="#029358"/>
</linearGradient>
<linearGradient id="paint2_linear_2483_264" x1="30.5599" y1="8.32394" x2="4.2515" y2="31.4817" gradientUnits="userSpaceOnUse">
<stop stop-color="#39C64E"/>
<stop offset="1" stop-color="#029358"/>
</linearGradient>
</defs>
</svg>
